Coordinates
version=1
nRows=14
nColumns=24
inDegrees=yes

Units are S.I. units (second, meters, Newtons, ...)
Angles are in degrees.

endheader
time	pelvis_tilt	pelvis_list	pelvis_rotation	pelvis_tx	pelvis_ty	pelvis_tz	hip_flexion_r	hip_adduction_r	hip_rotation_r	knee_angle_r	ankle_angle_r	subtalar_angle_r	mtp_angle_r	hip_flexion_l	hip_adduction_l	hip_rotation_l	knee_angle_l	ankle_angle_l	subtalar_angle_l	mtp_angle_l	lumbar_extension	lumbar_bending	lumbar_rotation
      0.75800000	      0.70625877	     -4.74913913	      6.51169907	     -0.41081251	      1.03615781	      0.30954940	      8.16088715	      9.60101568	     -4.09575434	     -9.39844421	      1.21678009	    -10.03341467	      7.65097523	     17.01840845	     -7.22038837	     -2.91329123	    -65.45915713	     -1.32798214	     -2.79875021	      2.97681952	     -7.58134024	      2.78864886	      0.50399004
      0.76216667	      0.67952512	     -4.59148794	      6.50367893	     -0.40573090	      1.03685982	      0.30976345	      7.73720056	      9.49138427	     -4.01830039	     -9.16838956	      1.32931314	     -9.99518940	      7.62891093	     17.54702930	     -7.04007202	     -2.95769171	    -64.97863736	     -0.85658005	     -3.10925379	      2.93179249	     -7.60896933	      2.57249529	      0.54655992
      0.76633333	      0.67062873	     -4.42883843	      6.47488556	     -0.40065587	      1.03759343	      0.31000420	      7.28598781	      9.38180512	     -3.89533256	     -8.92792461	      1.47875627	     -9.90794320	      6.77242276	     18.02691930	     -6.85768858	     -3.02284940	    -64.41678497	     -0.38021230	     -3.38569843	      1.21898638	     -7.66313458	      2.34951445	      0.75686655
      0.77050000	      0.64535622	     -4.26989645	      6.48890328	     -0.39557775	      1.03827264	      0.31016030	      6.85613454	      9.26420690	     -3.87093595	     -8.68141177	      1.56604428	     -9.87505833	      6.76708784	     18.51543041	     -6.65438495	     -3.03794860	    -63.78440699	      0.06224115	     -3.68356108	      1.21604095	     -7.68999562	      2.13323894	      0.72377231
      0.77466667	      0.66070880	     -4.08617047	      6.48072360	     -0.39051092	      1.03903152	      0.31033141	      6.37064831	      9.12731181	     -3.78671125	     -8.42159568	      1.67466353	     -9.80980202	      6.74917616	     18.91812824	     -6.42534376	     -3.07246527	    -63.04885749	      0.41626947	     -3.99886259	      1.19397766	     -7.79189312	      1.90047102	      0.72194580
      0.77883333	      0.65506748	     -3.90997344	      6.46576032	     -0.38545982	      1.03972110	      0.31049716	      5.92092113	      8.99318866	     -3.72992640	     -8.18249297	      1.76120512	     -9.75214473	      6.73395249	     19.32435097	     -6.19919899	     -3.10883530	    -62.25462264	      0.83024904	     -4.25569191	      1.18004613	     -7.86080162	      1.68347107	      0.74249311
      0.78300000	      0.65390715	     -3.72537296	      6.44371192	     -0.38039506	      1.04040639	      0.31067093	      5.45974901	      8.85128115	     -3.65951843	     -7.93347443	      1.86051330	     -9.68458015	      6.71351966	     19.69457738	     -5.96180188	     -3.15100123	    -61.37744859	      1.19813877	     -4.50845585	      1.15922858	     -7.93409014	      1.44345975	      0.77396242
      0.78716667	      0.68813323	     -3.53645905	      6.41932985	     -0.37534054	      1.04113230	      0.31083695	      4.95727714	      8.70802670	     -3.59360520	     -7.67640449	      1.95868719	     -9.60937347	      6.68590600	     19.99680809	     -5.72036993	     -3.19213377	    -60.42176133	      1.54695779	     -4.74306151	      1.13062593	     -8.05074094	      1.20374745	      0.81425193
      0.79133333	      0.69563282	     -3.36457875	      6.39348323	     -0.37028459	      1.04177407	      0.31099847	      4.48510331	      8.57916439	     -3.52158645	     -7.41663869	      2.06203382	     -9.53070153	      6.64435007	     20.31104913	     -5.48833106	     -3.22089218	    -59.40836517	      1.87205542	     -4.95391160	      1.08708033	     -8.12955528	      0.98130104	      0.85913815
      0.79550000	      0.70964397	     -3.16791598	      6.34500223	     -0.36526072	      1.04242826	      0.31117883	      4.02194656	      8.42182437	     -3.45294265	     -7.19234536	      2.14665763	     -9.46431668	      6.61221164	     20.57908348	     -5.22918431	     -3.26509985	    -58.30935382	      2.21514066	     -5.12217387	      1.05562038	     -8.23373728	      0.73199219	      0.88979918
      0.79966667	      0.72834932	     -2.98096813	      6.29513438	     -0.36022879	      1.04304733	      0.31134366	      3.54762067	      8.27457117	     -3.37353780	     -6.95276958	      2.24283657	     -9.38973831	      6.57602981	     20.81791682	     -4.97619184	     -3.30117028	    -57.14499294	      2.51961640	     -5.28374873	      1.01877084	     -8.33719285	      0.49823674	      0.93010995
      0.80383333	      0.74209301	     -2.80297466	      6.23668287	     -0.35521125	      1.04361866	      0.31152124	      3.08580842	      8.13590536	     -3.29095893	     -6.72225587	      2.33859623	     -9.31754403	      6.53641503	     21.03909377	     -4.73105775	     -3.33205294	    -55.91858661	      2.80731133	     -5.41781899	      0.97790114	     -8.43680908	      0.27024335	      0.97408356
      0.80800000	      0.77020219	     -2.62124268	      6.16745195	     -0.35020023	      1.04418677	      0.31170262	      2.61039957	      7.99316759	     -3.19999364	     -6.49476446	      2.43702010	     -9.24632535	      6.49305701	     21.21297468	     -4.48241976	     -3.36542076	    -54.61793918	      3.07435134	     -5.53493866	      0.93224154	     -8.55475939	      0.04055012	      1.02473510
      0.81216667	      0.81532355	     -2.44645347	      6.09571619	     -0.34517369	      1.04475833	      0.31188021	      2.10876369	      7.85878833	     -3.10226777	     -6.24867624	      2.54655988	     -9.16216918	      6.43101852	     21.33938604	     -4.24034167	     -3.39187336	    -53.24641675	      3.28715671	     -5.65622736	      0.86515704	     -8.68236752	     -0.17409892	      1.09603993
